<svg viewBox="0 0 585 91" xmlns="http://www.w3.org/2000/svg">
  <path d="M70.601 17.0472L57.7533 23.6698C54.8167 18.7642 46.741 14.1038 37.4418 14.1038C25.4506 14.1038 19.6998 19.1321 19.6998 25.5094C19.6998 32.9906 28.5096 35.0755 38.7877 36.3019C56.6521 38.5094 73.2929 43.1698 73.2929 63.6509C73.2929 82.783 56.4074 91 37.3194 91C19.8221 91 6.36265 85.6038 0 69.9057L13.4595 62.9151C17.2526 72.3585 27.1636 76.5283 37.5641 76.5283C47.7199 76.5283 57.2639 72.9717 57.2639 63.6509C57.2639 55.5566 48.8211 52.2453 37.4418 51.0189C19.9445 48.934 3.79312 44.2736 3.79312 25.0189C3.79312 7.35849 21.1681 0.122641 36.9523 0C50.2894 0 64.116 3.80189 70.601 17.0472ZM96.2963 2.9434L118.076 38.3868L140.835 2.9434H160.29V3.67924L126.152 53.3491V88.7924H110V53.3491L77.086 3.67924V2.9434H96.2963ZM223.672 56.1698V2.82075H239.823V88.7924H229.79V88.9151L184.762 30.9057V88.7924H168.61V2.9434H181.703L223.672 56.1698ZM318.5 72.8491V88.7924H254.384V2.9434H318.5V18.6415H270.413V38.3868H316.787V53.4717H270.413V72.8491H318.5ZM406.965 87.6887V88.7924H387.755L362.794 60.0943H347.254V88.7924H331.103V2.82075C344.684 2.82075 358.266 2.9434 371.848 2.9434C392.037 3.06604 402.683 16.5566 402.683 31.3962C402.683 43.1698 397.299 55.066 381.025 58.3774L406.965 87.6887ZM371.848 18.0283H347.254V45.5H371.848C382.126 45.5 386.531 38.6321 386.531 31.7641C386.531 24.8962 382.004 18.0283 371.848 18.0283ZM446.12 2.9434C475.486 2.9434 488.578 23.9151 488.945 45.1321C489.312 66.8396 476.098 88.7924 446.12 88.7924H412.471V2.9434H446.12ZM428.5 18.2736V73.217H446.12C465.575 73.217 473.284 58.9906 472.916 45.0094C472.549 31.6415 464.718 18.2736 446.12 18.2736H428.5ZM541.07 1.22641C570.559 1.22641 585.242 23.9151 584.997 46.3585C584.752 68.5566 571.171 90.7547 541.07 90.7547C510.97 90.7547 497.021 69.0472 497.021 46.4811C497.021 23.9151 511.459 1.22641 541.07 1.22641ZM541.07 15.9434C520.881 15.9434 512.561 32.2547 512.928 46.7264C513.295 60.8302 520.881 75.9151 541.07 75.9151C561.259 75.9151 568.846 60.7075 569.09 46.6038C569.335 32.1321 561.259 15.9434 541.07 15.9434Z" fill="black"/>
</svg>